PathFileType	4	(X/Y/Z)	HSS_walk5.trc
DataRate	CameraRate	NumFrames	NumMarkers	Units	OrigDataRate	OrigDataStartFrame	OrigNumFrames
120.0	120.0	6	44	mm	120.0	676	1080
Frame#	Time		R.Shoulder		Offset		L.Shoulder		R.Elbow		R.Wrist.Radial		R.Wrist		R.Hand		L.Elbow		L.Wrist.Radial		L.Wrist		L.Hand		R.Hip		V.Sacral		L.PSIS		L.Hip		R.Thigh.Upper		R.Thigh.Front		R.Thigh.Rear		X.Shell.Lower.Thigh.Right		R.Knee.Lateral		R.Shank.Upper		R.Shank.Front		R.Shank.Rear		X.Shell.Lower.Shank.Right		R.Ankle.Lateral		R.Heel		R.Toe		L.Thigh.Upper		L.Thigh.Front		L.Thigh.Rear		X.Shell.Lower.Thigh.Left		L.Knee.Lateral		L.Shank.Upper		L.Shank.Front		L.Shank.Rear		X.Shell.Lower.Shank.Left		L.Ankle.Lateral		L.Heel		L.Toe		R.Troc		L.Troc		R.PSIS		L.ASIS		R.ASIS
			X1	Y1	Z1	X2	Y2	Z2	X3	Y3	Z3	X4	Y4	Z4	X5	Y5	Z5	X6	Y6	Z6	X7	Y7	Z7	X8	Y8	Z8	X9	Y9	Z9	X10	Y10	Z10	X11	Y11	Z11	X12	Y12	Z12	X13	Y13	Z13	X14	Y14	Z14	X15	Y15	Z15	X16	Y16	Z16	X17	Y17	Z17	X18	Y18	Z18	X19	Y19	Z19	X20	Y20	Z20	X21	Y21	Z21	X22	Y22	Z22	X23	Y23	Z23	X24	Y24	Z24	X25	Y25	Z25	X26	Y26	Z26	X27	Y27	Z27	X28	Y28	Z28	X29	Y29	Z29	X30	Y30	Z30	X31	Y31	Z31	X32	Y32	Z32	X33	Y33	Z33	X34	Y34	Z34	X35	Y35	Z35	X36	Y36	Z36	X37	Y37	Z37	X38	Y38	Z38	X39	Y39	Z39	X40	Y40	Z40	X41	Y41	Z41	X42	Y42	Z42	X43	Y43	Z43	X44	Y44	Z44

676	5.62500	836.79871	1462.89441	-24.05441	706.34314	1372.40076	-296.66864	827.65558	1462.64343	-394.69632	848.94977	1095.87866	36.93117	1053.89978	934.00873	22.39545	1019.73456	910.82330	84.24223	1092.05225	863.78308	80.04521	732.32440	1113.13489	-424.38568	764.79950	882.52661	-488.40259	795.09631	866.12299	-425.29703	778.08673	795.15851	-477.14706	834.12097	1007.73596	-48.30656	735.07178	996.84186	-214.60770	741.94067	1007.22296	-253.47464	873.33264	1019.93445	-342.78400	896.03064	663.90057	-9.69867	936.47180	631.21112	-15.01430	876.27722	622.99451	-2.80470	910.94861	593.70056	-11.92112	858.84802	485.96738	-25.11227	746.67004	392.18314	10.31630	733.41962	343.63602	-15.32808	699.94104	394.08383	-7.28527	684.47894	350.89990	-18.76591	507.09500	233.31329	-87.95261	481.66251	261.17105	-150.26379	500.55847	75.75406	-92.78006	1003.56787	697.36688	-343.14673	1032.52490	657.02100	-313.52762	987.09784	653.37958	-357.03070	1019.49890	628.27521	-338.41693	980.73474	502.13208	-309.28848	955.50110	298.29752	-339.78455	979.27405	275.11365	-316.71152	921.60352	261.44229	-329.22595	943.68091	230.02261	-325.13440	938.50122	70.26344	-267.95642	877.66315	35.38062	-225.19667	1079.76953	33.41977	-248.34760	841.17621	845.31458	-18.16054	903.10968	884.61163	-374.23328	730.54492	999.94604	-169.34029	934.54510	987.61658	-292.13620	896.77423	971.03497	-73.03063
677	5.63333	846.67120	1464.16675	-24.34341	717.73639	1373.98511	-298.47427	839.96344	1463.58789	-395.27756	855.62494	1097.03650	35.85880	1056.31946	930.31677	22.06690	1021.47900	908.33337	84.14139	1092.27124	858.67096	79.41208	749.26569	1112.30908	-426.89999	788.02863	881.99695	-488.84677	818.56970	866.79346	-425.42151	804.37885	795.31964	-477.59070	844.59796	1009.52753	-48.79573	745.34583	998.00159	-214.89581	752.35291	1008.39734	-253.94522	883.63641	1021.08765	-343.93649	912.77118	666.60876	-9.49996	953.86530	634.74957	-14.74903	893.97498	625.38757	-2.93394	929.14551	596.71161	-11.60434	879.87762	488.61057	-25.02413	767.73163	395.72168	9.51090	754.63666	346.91083	-15.74187	721.48511	397.46863	-8.74688	705.91608	354.20517	-19.78350	529.22760	235.74159	-88.80836	501.01346	260.75711	-152.07935	529.27423	78.37245	-88.12848	1010.95038	696.78912	-342.79645	1039.61792	656.02869	-313.35815	994.02319	653.02069	-356.86850	1026.05164	627.44879	-338.11255	985.53308	501.61121	-309.22443	957.92371	298.12372	-339.70496	981.46930	274.65048	-316.59558	923.55341	261.60638	-328.88330	945.26923	230.01031	-325.08069	938.62732	70.28309	-267.83423	877.64325	35.55596	-225.09262	1079.81873	33.36225	-248.24689	853.85547	846.88501	-18.65386	912.08527	885.15118	-376.84357	741.03369	1001.34686	-169.96933	944.84387	988.55530	-293.11746	907.49768	973.07635	-73.68673
678	5.64167	856.50995	1465.45398	-24.67949	729.05255	1375.43823	-300.24762	851.92603	1464.63306	-395.91135	862.40717	1098.40417	34.44958	1058.28723	926.82678	21.83096	1023.10919	906.04596	84.10681	1091.96094	853.75500	78.75915	766.34082	1111.65540	-429.19803	811.75830	881.76166	-489.31903	842.26562	867.81726	-425.68759	831.15906	796.05286	-478.01160	854.89545	1011.53607	-48.90417	755.76703	999.51349	-215.16438	762.76874	1009.58521	-254.32805	893.63861	1022.31519	-344.53543	929.41980	669.34711	-9.66919	971.32642	638.42340	-14.39731	911.37421	627.84497	-2.92780	947.39752	600.16528	-11.52314	900.60150	491.55334	-25.29244	788.67151	399.79297	8.32564	775.97534	350.37720	-15.96163	742.68512	401.03372	-10.42851	727.27710	357.72122	-20.90736	552.04181	237.38972	-89.79729	520.47955	258.97781	-153.43494	559.67297	80.33698	-83.59310	1018.30139	696.03143	-342.67474	1046.22803	655.08289	-313.16580	1000.60651	652.60693	-356.56863	1032.32056	626.70880	-338.05035	990.51843	501.18497	-308.97983	960.22723	298.05164	-339.58023	983.60571	274.28055	-316.56305	925.55121	261.84573	-328.62683	946.74896	229.94379	-325.02841	938.76312	70.27868	-267.74557	877.64368	35.74350	-225.00540	1079.94055	33.25262	-248.11292	866.33746	848.65839	-18.68575	921.42029	885.45502	-377.42105	751.45001	1002.99286	-170.32538	955.07507	989.70569	-294.01541	918.25970	975.12646	-74.60399
679	5.65000	866.31927	1466.76929	-25.04187	740.37897	1376.97034	-301.89020	863.77802	1465.70630	-396.52911	868.45050	1099.74182	33.32502	1059.96472	923.46600	21.65566	1024.50940	903.95648	84.04292	1091.51465	849.19269	78.22672	783.86621	1111.04724	-431.49060	835.76074	882.05414	-489.75949	864.93274	869.14288	-426.01773	858.20123	797.26660	-478.03903	867.33936	1013.92950	-50.69139	766.25116	1001.16980	-215.40160	773.01343	1010.94824	-254.53217	903.61829	1023.51953	-345.04193	946.18866	672.47369	-9.60051	988.73651	642.31488	-14.46418	929.10742	630.61908	-2.97232	965.64343	603.42194	-11.42034	921.28613	494.58536	-25.54621	809.61890	403.71902	7.11007	797.23199	353.73340	-16.17911	764.05408	404.61450	-12.45363	748.67340	360.88254	-21.99347	574.55707	238.22878	-90.73504	540.88190	256.28503	-154.07759	590.91711	81.84962	-78.94280	1025.39880	695.26819	-342.61224	1052.94653	654.04602	-313.05554	1007.19196	652.04834	-356.30386	1038.54968	625.83344	-338.07275	995.40497	500.76468	-308.89664	962.63452	297.88474	-339.43295	985.74945	273.82648	-317.00027	927.59827	262.16861	-328.52698	948.45709	230.00432	-324.98892	939.00122	70.32262	-267.61658	877.67999	35.91607	-224.92534	1080.10400	33.11731	-247.92848	879.38300	850.50305	-19.55095	930.52948	885.58472	-377.98953	762.10480	1004.78369	-170.46396	965.18573	990.53448	-295.11551	929.11682	977.12671	-75.64153
680	5.65833	876.27094	1468.37122	-25.23000	751.50671	1378.46301	-303.38748	875.62775	1466.86780	-396.80618	874.27771	1101.23206	32.65123	1061.34705	920.30518	21.74119	1025.33252	902.23572	84.53176	1090.76697	844.92010	77.70792	801.22009	1110.66870	-433.83640	860.18500	882.81970	-490.10715	890.65851	870.88538	-425.85400	885.72485	799.06152	-478.50244	878.21191	1016.34167	-51.23349	776.71936	1002.84943	-215.21135	783.42194	1012.26715	-254.73311	913.67853	1024.60034	-345.81192	963.28723	675.72247	-9.73097	1006.27246	646.20795	-14.73200	946.74396	633.15533	-3.18621	983.80841	606.99500	-11.67719	941.77118	497.66913	-25.88380	830.34705	407.59595	5.75864	818.58002	356.99869	-16.51473	785.24249	407.59747	-14.63339	770.33118	363.68585	-23.07100	598.12048	238.88644	-91.13085	562.59454	252.93578	-154.23201	622.60510	83.03650	-75.17928	1032.36316	694.50732	-342.69653	1059.33716	652.92316	-313.08932	1013.43353	651.49194	-356.26410	1044.62402	624.77863	-337.85962	1000.18903	500.18564	-308.57635	964.87878	297.78516	-339.30563	987.80829	273.44263	-316.64963	929.48706	262.46423	-328.27374	950.16260	229.93669	-324.69675	939.22729	70.35284	-267.44937	877.69891	36.09181	-224.74380	1080.19128	33.01749	-247.80066	892.16559	852.62823	-20.06625	940.16058	885.70087	-379.27048	772.58990	1006.75171	-170.40137	975.20605	991.38885	-296.28091	940.04480	979.22681	-76.66819
681	5.66667	886.07074	1469.75024	-25.50840	762.53326	1379.79395	-304.52890	887.03644	1468.20349	-397.29333	880.52808	1102.65027	31.34937	1062.06238	917.21509	21.41870	1026.27026	900.63153	84.34074	1089.48645	840.91699	77.44104	818.90900	1110.53101	-436.02829	884.82300	883.90948	-490.57480	914.74170	872.97412	-425.71579	913.34778	801.47089	-478.84445	889.55066	1018.57172	-51.81540	787.08038	1004.67499	-215.01360	793.66003	1013.73334	-254.88217	923.00342	1025.58911	-346.34262	980.24475	679.14539	-9.56838	1023.79480	650.53644	-15.17214	964.82458	636.52814	-2.82263	1002.27997	610.82855	-11.93138	961.96143	500.75958	-26.06850	851.19135	411.12082	4.38893	840.40320	359.71057	-16.60250	806.55469	409.95193	-16.87038	792.24011	365.58908	-24.35580	622.50031	236.80641	-90.78212	585.21924	248.69073	-154.06079	654.23773	83.41512	-72.12189	1039.04614	693.56635	-342.94568	1065.65527	651.62775	-313.33051	1019.36316	650.85449	-356.11453	1050.38635	623.77271	-337.86774	1004.39703	499.71115	-308.63086	967.14734	297.59711	-339.01770	990.04999	273.10120	-316.34521	931.45410	262.53192	-327.99893	951.81726	229.97784	-324.55902	939.40411	70.47883	-267.28937	877.73199	36.34233	-224.46861	1080.30981	32.90997	-247.69279	904.51495	854.68414	-20.43600	949.07727	885.99554	-379.88428	783.16962	1008.69891	-170.34926	985.08209	992.20935	-297.36386	950.93402	981.32721	-77.73070
